<svg id="Layer_1" data-name="Layer 1" xmlns="http://www.w3.org/2000/svg" viewBox="0 0 32 32"><defs><style>.cls-1{fill:#0e192c;}.cls-1,.cls-2,.cls-4{stroke:#67ddff;}.cls-1,.cls-2{stroke-miterlimit:10;stroke-width:0.1px;}.cls-2,.cls-3,.cls-4{fill:#67ddff;}.cls-4{stroke-linecap:round;stroke-linejoin:round;stroke-width:0.03px;}</style></defs><polygon class="cls-1" points="8.49 10.39 8.88 9.86 29.83 25.86 30.71 26.97 29.4 26.43 8.1 10.92 8.49 10.39"/><polyline class="cls-2" points="8.49 10.39 8.88 9.86 29.83 25.86 30.71 26.97"/><path class="cls-1" d="M7.59,9.28,7.21,9a2.57,2.57,0,0,0-.53-3.6,2.82,2.82,0,0,0-2.61-.28c-.49.25-.87.4-1.26,0a.7.7,0,0,1,.08-1.06c.19-.14.27-.07.33,0a.24.24,0,0,1,0,.32c-.08.12-.31.16-.35.24a.24.24,0,0,0,.1.3c.21.15.38.15.93-.17A3,3,0,0,1,7,5,3,3,0,0,1,7.59,9.28Z"/><path class="cls-1" d="M1.52,6.17a.73.73,0,0,1-.06-1,.73.73,0,0,1,1-.23,1.35,1.35,0,0,0,.81,1.12L3,6.33l-.21.29A1.36,1.36,0,0,0,1.52,6.17Z"/><path class="cls-1" d="M3.15,6.77l.38-.51A1.58,1.58,0,0,1,4,6.48a1.4,1.4,0,0,1,.33.19,1.41,1.41,0,0,1,.28.26,1.32,1.32,0,0,1,.34.2,1.76,1.76,0,0,1,.28.26,1.46,1.46,0,0,1,.33.2,1.41,1.41,0,0,1,.28.26A1.93,1.93,0,0,1,6.14,8a2.42,2.42,0,0,1,.28.27,1.86,1.86,0,0,1,.33.19A1.45,1.45,0,0,1,7,8.77,1.45,1.45,0,0,1,7.37,9c.4.3.59.71.43.92l.35.26c-.16.21-.61.14-1-.15a2.42,2.42,0,0,1-.28-.27,1.86,1.86,0,0,1-.33-.19,1.8,1.8,0,0,1-.28-.27,1.45,1.45,0,0,1-.34-.19,1.15,1.15,0,0,1-.27-.27,1.28,1.28,0,0,1-.34-.19A1.44,1.44,0,0,1,5,8.34a1.69,1.69,0,0,1-.61-.45,1.32,1.32,0,0,1-.34-.2,1.76,1.76,0,0,1-.28-.26,1.86,1.86,0,0,1-.33-.19A1,1,0,0,1,3.15,6.77Z"/><path class="cls-2" d="M4.53,6.9a1.41,1.41,0,0,0-.28-.26,1.46,1.46,0,0,0-.33-.2,1.82,1.82,0,0,0-.43-.21l-.09.11a1.75,1.75,0,0,1,.43.22,1.45,1.45,0,0,1,.34.19A1.44,1.44,0,0,1,4.45,7a1.4,1.4,0,0,1,.33.19,1.44,1.44,0,0,1,.28.27,1.45,1.45,0,0,1,.34.19,1.34,1.34,0,0,1,.27.26,1.32,1.32,0,0,1,.34.2,1.76,1.76,0,0,1,.28.26,1.86,1.86,0,0,1,.33.19,1.82,1.82,0,0,1,.28.27A1.63,1.63,0,0,1,7.24,9c.4.3.59.71.43.92L8,10.2a.27.27,0,0,0,.12-.09l-.35-.26c.16-.21,0-.63-.43-.92A1.68,1.68,0,0,0,7,8.74a1.44,1.44,0,0,0-.28-.27,1.4,1.4,0,0,0-.33-.19A1.44,1.44,0,0,0,6.1,8a1.93,1.93,0,0,0-.34-.19,2.42,2.42,0,0,0-.28-.27,1.86,1.86,0,0,0-.33-.19,2.42,2.42,0,0,0-.28-.27A1.93,1.93,0,0,0,4.53,6.9Z"/><path class="cls-1" d="M8.77,10.6a2.32,2.32,0,0,1-3.26.48L8.3,7.34A2.33,2.33,0,0,1,8.77,10.6Z"/><rect class="cls-1" x="2.77" y="6.27" width="0.82" height="0.34" rx="0.02" transform="translate(10.25 7.74) rotate(126.72)"/><circle class="cls-3" cx="3.03" cy="4.2" r="0.1"/><line class="cls-1" x1="3.94" y1="6.49" x2="3.25" y2="6.93"/><line class="cls-1" x1="5.17" y1="7.41" x2="4.4" y2="7.85"/><line class="cls-1" x1="5.79" y1="7.87" x2="5.02" y2="8.31"/><line class="cls-1" x1="6.4" y1="8.33" x2="5.64" y2="8.77"/><line class="cls-1" x1="4.55" y1="6.95" x2="3.78" y2="7.39"/><line class="cls-1" x1="7.02" y1="8.79" x2="6.25" y2="9.23"/><path class="cls-2" d="M5.51,11.08h0l2.4-3.21a2.26,2.26,0,0,1,.63,3,.75.75,0,0,0,.23-.24A2.33,2.33,0,0,0,8.3,7.34Z"/><path class="cls-2" d="M2.45,4.93a.73.73,0,0,0-1,.23l-.06.08a.63.63,0,0,1,.88-.09c.08.5.28.63.89,1l.09-.11A1.35,1.35,0,0,1,2.45,4.93Z"/><path class="cls-4" d="M5.12,4.45A.31.31,0,0,0,5,4.67a.35.35,0,0,0,.11.25A3.23,3.23,0,0,1,5.78,5a.3.3,0,0,0,.13-.24.28.28,0,0,0-.11-.24A3.21,3.21,0,0,0,5.12,4.45Z"/><polygon class="cls-2" points="3.24 6.08 3.22 6.11 3.49 6.31 3.51 6.28 3.24 6.08"/></svg>